PathFileType	4	(X/Y/Z)	C:/Users/beibeiliu/ov580/test_trc/User3\sequence.11_training_dense_right.trc
DataRate	CameraRate	NumFrames	NumMarkers	Units	OrigDataRate	OrigDataStartFrame	OrigNumFrames
120	120	16	19	mm	120	28	137
Frame#	Time	ThumbCMC			ThumbMCP			ThumbIP			ThumbTip			IndexMCP			IndexPIP			IndexTip			MiddleMCP			MiddlePIP			MiddleTip			RingMCP			RingPIP			RingTip			PinkyMCP			PinkyPIP			PinkyTip			BackHand1			BackHand2			BackHand3	
		X0	Y0	Z0	X1	Y1	Z1	X2	Y2	Z2	X3	Y3	Z3	X4	Y4	Z4	X5	Y5	Z5	X6	Y6	Z6	X7	Y7	Z7	X8	Y8	Z8	X9	Y9	Z9	X10	Y10	Z10	X11	Y11	Z11	X12	Y12	Z12	X13	Y13	Z13	X14	Y14	Z14	X15	Y15	Z15	X16	Y16	Z16	X17	Y17	Z17	X18	Y18	Z18	
27	0.225	49.6497	-56.9044	1.61256	30.8959	-63.7657	-23.7854	17.9506	-67.8162	-55.0193	14.7578	-78.2546	-75.011	62.9861	-39.8607	-75.0037	47.638	-49.6903	-98.9986	30.2514	-77.5776	-104.874	87.1776	-41.0239	-79.7576	81.4626	-44.0141	-110.773	63.4346	-58.7155	-139.003	106.198	-56.1713	-72.2204	101.707	-52.9	-101.194	100.299	-62.6285	-129.396	122.024	-76.3616	-60.048	130.713	-79.6668	-80.0342	131.321	-79.7811	-107	111.512	-56.4321	-25.0333	114.753	-58.7507	8.56162	85.9649	-40.5658	-7.84635	
28	0.233333	50.3277	-58.0023	-2.6256	31.8146	-64.7938	-29.3691	19.9343	-70.7617	-52.5797	14.9482	-80.1472	-76.3181	61.4444	-36.6535	-76.8473	48.6034	-45.3526	-100.492	31.9018	-73.3868	-111.491	87.1529	-40.5986	-81.4805	79.1847	-42.348	-109.125	65.4785	-57.9291	-139.063	104.785	-55.0699	-76.2098	104.8	-54.7954	-101.88	99.3018	-62.0912	-127.412	120.979	-76.5772	-61.279	128.668	-77.8591	-82.8327	135.144	-82.5605	-103.366	110.259	-55.5474	-22.7575	115.563	-60.8661	7.46353	83.2731	-39.5869	-8.74025	
29	0.241667	52.1193	-58.3937	-1.44334	32.8314	-67.5933	-27.3075	17.6019	-73.0574	-55.8872	18.9384	-82.821	-79.7985	65.6056	-36.3446	-78.3795	52.9844	-40.7652	-101.52	38.139	-61.3673	-116.766	88.6635	-40.2477	-83.6826	79.6682	-44.5971	-112.338	60.7775	-59.1756	-139.284	105.723	-56.2286	-74.8682	103.109	-54.5397	-104.209	96.0828	-61.5859	-130.261	119.996	-76.0996	-60.7554	129.18	-77.8648	-84.5546	135.609	-82.0158	-103.839	111.347	-55.6426	-24.9609	117.356	-60.8514	6.20067	83.0801	-40.0989	-5.16863	
30	0.25	50.4301	-57.0315	-3.75555	32.4394	-67.6761	-29.6705	21.3253	-76.2594	-54.302	20.1294	-85.8368	-75.7277	62.3326	-32.1052	-73.9721	54.4583	-39.1078	-102.201	40.3264	-53.5757	-119.452	85.3096	-41.4705	-83.0866	74.3355	-47.1894	-112.896	57.2832	-67.4027	-134.505	104.122	-54.5477	-77.5045	99.1168	-53.9718	-103.977	93.088	-67.0193	-131.987	117.927	-73.346	-62.3067	124.319	-73.4971	-85.0071	131.375	-77.1609	-104.626	111.474	-56.1299	-24.1912	114.579	-60.0407	3.54724	84.7975	-39.037	-5.22008	
31	0.258333	51.78	-57.3026	-1.17381	33.7188	-68.9243	-31.3458	23.6313	-77.1889	-55.0084	21.3665	-88.0062	-78.7643	66.0159	-33.0165	-71.3032	52.5899	-36.4809	-101.097	40.8395	-52.6286	-120.566	82.0364	-43.718	-84.4156	68.9785	-55.4339	-109.66	45.2874	-81.8246	-124.158	100.019	-53.6356	-77.9668	96.0408	-57.2161	-104.69	84.7594	-66.4352	-126.416	119.118	-73.2901	-60.6433	123.687	-71.7705	-82.4284	128.002	-72.7067	-106.102	109.415	-53.9411	-24.2651	114.392	-56.3893	6.87459	87.4088	-39.7492	-5.57612	
32	0.266667	49.529	-56.8669	2.87819	32.8871	-68.8645	-30.7027	22.8948	-76.6292	-57.647	25.4653	-87.8994	-79.7681	64.5807	-31.5144	-69.0913	48.6196	-35.1981	-100.103	37.9971	-49.4188	-116.484	77.7257	-46.1705	-79.443	58.3396	-61.26	-104.598	42.1941	-93.2269	-110.008	98.5158	-53.5007	-75.3714	91.4579	-56.0511	-102.682	79.8759	-72.8174	-126.307	116.488	-70.8139	-58.2752	126.121	-71.473	-80.8056	126.89	-70.9514	-107.756	112.191	-53.9142	-22.3234	116.793	-60.1628	4.49023	87.1478	-38.5031	-7.24574	
33	0.275	50.8204	-58.1246	1.4166	32.6173	-69.3803	-26.0329	24.0345	-77.9335	-54.6163	25.4906	-86.7571	-80.9689	60.4675	-29.0889	-72.0958	50.4786	-34.0543	-97.6623	40.156	-50.915	-117.08	78.1325	-49.2828	-78.9549	57.0777	-65.0344	-101.824	38.3271	-95.051	-101.056	98.0431	-52.8267	-78.7009	91.1587	-57.1111	-103.684	79.4753	-74.1807	-122.645	117.807	-68.4934	-59.9729	125.693	-67.6826	-80.525	131.176	-67.7568	-107.415	111.113	-51.3911	-21.9369	114.099	-57.2633	3.55349	82.7902	-37.6767	-2.3507	
34	0.283333	51.826	-58.1141	-1.52175	32.4672	-68.1524	-30.2991	27.8142	-76.6649	-54.1936	25.8867	-85.8099	-81.7915	64.7341	-31.9039	-71.3835	48.4009	-33.6917	-100.666	39.1246	-47.7946	-117.743	71.6042	-46.7038	-81.7527	56.478	-64.966	-100.468	38.2866	-99.6673	-96.3729	96.1748	-50.7037	-76.479	91.0954	-55.8849	-101.931	73.1277	-72.881	-124.854	117.135	-67.4954	-60.1692	125.909	-66.4009	-81.6757	129.156	-64.0601	-104.933	110.691	-54.7205	-21.3672	113.364	-59.1115	6.50897	83.4444	-37.6814	-5.61296	
35	0.291667	52.0236	-57.9288	1.06942	33.1257	-66.9504	-32.6321	23.9285	-75.2021	-57.6315	29.9246	-84.7406	-80.1667	61.3769	-26.4724	-73.6866	54.0979	-32.6034	-98.084	38.9407	-43.3813	-118.555	73.7229	-45.8639	-84.2859	56.9352	-65.185	-102.482	41.9825	-97.9604	-98.2912	99.4804	-50.6173	-76.2725	88.1136	-52.7973	-105.475	75.622	-72.8478	-126.556	118.03	-63.8363	-62.037	124.045	-63.2971	-79.2797	129.748	-62.8795	-105.398	108.907	-49.2191	-21.7678	114.174	-58.1192	7.99532	86.3727	-37.2818	-5.17773	
36	0.3	51.6971	-55.7545	-3.49213	34.8221	-67.462	-29.8394	25.6688	-73.9724	-62.6535	28.4717	-84.3102	-82.5854	66.0106	-26.7294	-73.4188	52.7767	-27.6962	-99.1109	43.9876	-41.6407	-119.645	72.4482	-42.4527	-83.273	58.821	-61.9648	-102.28	38.2323	-95.7349	-98.1843	98.7761	-47.5183	-75.9638	90.055	-51.9303	-106.432	75.5579	-68.8847	-125.888	119.121	-65.9134	-59.1346	128.975	-60.7873	-84.8196	131.436	-58.4515	-102.014	108.354	-50.1337	-22.7363	113.026	-54.3245	2.77792	85.5387	-36.7358	-2.78805	
37	0.308333	52.9144	-58.3821	-0.453644	33.037	-68.0576	-30.2232	25.3153	-75.4515	-63.4986	29.7774	-85.837	-84.0687	66.081	-27.2101	-71.6669	57.7192	-28.173	-99.0578	41.7401	-37.3861	-121.643	76.6138	-42.7933	-84.0062	62.029	-63.1345	-104.081	43.8013	-96.3004	-98.7387	101.128	-46.429	-75.9184	91.9268	-50.3174	-106.916	78.329	-63.9232	-125.64	121.86	-65.0319	-61.1733	129.961	-60.4076	-84.187	132.902	-57.3215	-106.237	111.368	-49.6847	-21.6279	117.209	-55.9125	2.224	85.533	-35.5919	-8.12609	
38	0.316667	52.2986	-57.7811	-0.0562898	34.4049	-68.0831	-30.5005	26.8686	-75.6281	-62.4635	29.1749	-86.8647	-81.31	66.3597	-27.4474	-75.5963	55.6042	-27.9532	-101.178	44.5795	-39.7632	-123.537	80.2344	-44.9608	-83.41	60.6392	-61.4165	-103.538	40.8619	-95.733	-98.8059	99.5794	-46.5038	-79.0259	96.6913	-50.3397	-103.989	80.604	-63.6294	-126.469	120.726	-65.8865	-59.006	130.808	-63.6189	-78.8277	134.184	-59.9196	-102.133	110.205	-51.6437	-22.0831	114.234	-55.2915	2.82885	87.2573	-35.5201	-7.02251	
39	0.325	48.9566	-57.3296	-0.391573	36.2477	-67.9765	-34.7765	31.4325	-76.4072	-62.1248	31.4831	-87.7181	-80.9059	65.2675	-28.0838	-69.7072	55.9443	-26.8653	-98.2947	44.7213	-37.2112	-122.781	76.8603	-43.7465	-84.6125	61.3553	-65.4599	-105.188	44.7056	-98.3064	-98.8455	102.948	-48.8977	-80.1499	95.7607	-51.0138	-105.373	81.8695	-65.6173	-128.115	119.602	-64.0695	-59.7599	132.023	-62.7757	-81.0596	136.79	-62.1112	-105.133	113.147	-52.8452	-23.3053	116.78	-59.0156	5.57644	85.9324	-35.1925	-6.83046	
40	0.333333	50.6936	-57.2726	-2.86839	37.0924	-69.7735	-31.7851	29.4113	-77.9809	-60.2084	34.0639	-87.081	-82.2017	66.3414	-27.7354	-70.5606	59.8552	-29.84	-98.9276	47.9075	-40.2047	-125.302	82.0841	-46.4231	-83.3437	63.9304	-62.6626	-103.265	45.6794	-97.7402	-100.266	105.011	-51.9941	-75.5927	97.4262	-52.393	-104.156	87.7332	-66.4272	-127.124	124.326	-67.999	-59.1187	133.905	-65.4432	-81.0564	139.712	-65.0052	-103.228	111.347	-51.9027	-23.0362	117.49	-57.1095	5.53575	87.9203	-39.6398	-6.22708	
41	0.341667	53.2965	-58.5164	-1.80868	35.7756	-69.7867	-29.4796	32.804	-77.022	-60.859	34.7093	-87.4637	-84.6383	66.2598	-26.9515	-70.6404	59.6371	-29.0192	-99.324	48.6631	-36.642	-121.489	79.5007	-45.8452	-85.063	66.1244	-66.1015	-104.308	48.6714	-100.06	-99.8181	105.167	-50.9193	-78.5354	98.5757	-51.4702	-101.968	87.1	-68.8779	-128.638	124.082	-69.4333	-57.1009	131.887	-63.4936	-82.8872	139.997	-66.0639	-101.679	114.16	-52.1346	-20.3411	116.497	-58.9711	3.17381	85.6882	-37.9024	-4.28761	
42	0.35	55.8725	-58.2759	-2.87192	39.1754	-69.923	-29.5166	32.0198	-77.0322	-61.6879	34.5063	-86.8381	-85.6948	70.5933	-29.6511	-74.5403	62.9967	-30.7375	-97.9389	52.3055	-38.4247	-121.519	82.8113	-48.2358	-85.491	68.4316	-64.8977	-103.413	48.1438	-98.2328	-100.587	103.112	-50.7531	-76.0927	99.3096	-53.6634	-104.105	87.6877	-64.5935	-125.473	126.047	-69.9058	-57.8028	134.929	-66.4836	-78.2524	140.983	-65.6018	-103.226	114.985	-52.4237	-20.349	119.13	-59.292	3.1716	87.5006	-37.7133	-7.60489	
